<?xml version="1.0" standalone="no"?><!DOCTYPE svg PUBLIC "-//W3C//DTD SVG 1.1//EN" "http://www.w3.org/Graphics/SVG/1.1/DTD/svg11.dtd"><svg t="1724482869371" class="icon" viewBox="0 0 1024 1024" version="1.1" xmlns="http://www.w3.org/2000/svg" p-id="2625" xmlns:xlink="http://www.w3.org/1999/xlink" width="256" height="256"><path d="M512 1023.75a40 40 0 0 1-40-40v-194a40 40 0 0 1 80 0v194a40 40 0 0 1-40 40z" p-id="2626" fill="#ffffff"></path><path d="M609 926.75H415a40 40 0 0 1 0-80h194a40 40 0 0 1 0 80z" p-id="2627" fill="#ffffff"></path><path d="M904 926H779a40 40 0 0 1 0-80h125a40.14 40.14 0 0 0 40-40.19v-405a10.07 10.07 0 0 0-10-10.12H476a40 40 0 0 1-35.37-21.33L287.88 80H120a40.14 40.14 0 0 0-40 40.19v685.62A40.14 40.14 0 0 0 120 846h125a40 40 0 0 1 0 80H120C53.83 926 0 872.08 0 805.81V120.19C0 53.92 53.83 0 120 0h192a40 40 0 0 1 35.38 21.33l152.74 289.4H934a90.16 90.16 0 0 1 90 90.12v405C1024 872.08 970.17 926 904 926z" p-id="2628" fill="#ffffff"></path><path d="M944 380a40 40 0 0 1-40-40V157H386a40 40 0 0 1 0-80h518a80.09 80.09 0 0 1 80 80v183a40 40 0 0 1-40 40z" p-id="2629" fill="#ffffff"></path></svg>