<?xml version="1.0" standalone="no"?><!DOCTYPE svg PUBLIC "-//W3C//DTD SVG 1.1//EN" "http://www.w3.org/Graphics/SVG/1.1/DTD/svg11.dtd"><svg t="1723388884633" class="icon" viewBox="0 0 1024 1024" version="1.1" xmlns="http://www.w3.org/2000/svg" p-id="2643" xmlns:xlink="http://www.w3.org/1999/xlink" width="256" height="256"><path d="M885.333333 256H138.666667a53.393333 53.393333 0 0 0-53.333334 53.333333v576a53.393333 53.393333 0 0 0 53.333334 53.333334h746.666666a53.393333 53.393333 0 0 0 53.333334-53.333334V309.333333a53.393333 53.393333 0 0 0-53.333334-53.333333z m10.666667 629.333333a10.666667 10.666667 0 0 1-10.666667 10.666667H138.666667a10.666667 10.666667 0 0 1-10.666667-10.666667V309.333333a10.666667 10.666667 0 0 1 10.666667-10.666666h746.666666a10.666667 10.666667 0 0 1 10.666667 10.666666zM659.5 556.266667l-202.666667-122.62A48 48 0 0 0 384 474.72v245.226667a47.886667 47.886667 0 0 0 72.846667 41.073333l202.666666-122.62a48 48 0 0 0 0-82.133333z m-22.086667 45.626666l-202.666666 122.62a5.333333 5.333333 0 0 1-8.093334-4.566666V474.72a5.073333 5.073333 0 0 1 2.713334-4.666667A5.333333 5.333333 0 0 1 432 469.333333a5.24 5.24 0 0 1 2.746667 0.813334l202.666666 122.62a5.333333 5.333333 0 0 1 0 9.12zM170.666667 106.666667a21.333333 21.333333 0 0 1 21.333333-21.333334h640a21.333333 21.333333 0 0 1 0 42.666667H192a21.333333 21.333333 0 0 1-21.333333-21.333333z m-42.666667 85.333333a21.333333 21.333333 0 0 1 21.333333-21.333333h725.333334a21.333333 21.333333 0 0 1 0 42.666666H149.333333a21.333333 21.333333 0 0 1-21.333333-21.333333z" fill="#ffffff" p-id="2644"></path></svg>