<?xml version="1.0" standalone="no"?><!DOCTYPE svg PUBLIC "-//W3C//DTD SVG 1.1//EN" "http://www.w3.org/Graphics/SVG/1.1/DTD/svg11.dtd"><svg t="1723900554663" class="icon" viewBox="0 0 1024 1024" version="1.1" xmlns="http://www.w3.org/2000/svg" p-id="2318" xmlns:xlink="http://www.w3.org/1999/xlink" width="256" height="256"><path d="M256 938.666667a42.666667 42.666667 0 1 1 0-85.333334h512a42.666667 42.666667 0 0 1 0 85.333334H256z m256-205.994667L291.328 512H426.666667V384a42.666667 42.666667 0 1 0-85.333334 0v42.666667H291.328c-75.989333 0-114.090667 91.904-60.330667 145.664l220.672 220.672a85.333333 85.333333 0 0 0 120.661334 0l220.672-220.672c53.76-53.76 15.658667-145.664-60.330667-145.664H682.666667V213.333333a85.333333 85.333333 0 0 0-85.333334-85.333333h-170.666666a85.333333 85.333333 0 0 0-85.333334 85.333333 42.666667 42.666667 0 1 0 85.333334 0h170.666666v298.666667H732.672L512 732.672z" fill="#ffffff" p-id="2319"></path></svg>