<?xml version="1.0" standalone="no"?><!DOCTYPE svg PUBLIC "-//W3C//DTD SVG 1.1//EN" "http://www.w3.org/Graphics/SVG/1.1/DTD/svg11.dtd"><svg t="1724160345636" class="icon" viewBox="0 0 1024 1024" version="1.1" xmlns="http://www.w3.org/2000/svg" p-id="3635" xmlns:xlink="http://www.w3.org/1999/xlink" width="256" height="256"><path d="M518.72 128a32 32 0 0 1 32 32v440.768l160-156.416a32 32 0 1 1 44.8 45.76l-214.464 209.6a32 32 0 0 1-45.12-0.384L288 489.792a32 32 0 0 1 45.44-45.056l153.28 154.432V160a32 32 0 0 1 32-32z" fill="#ffffff" p-id="3636"></path><path d="M160 575.872a32 32 0 0 1 32 32v192a32 32 0 0 0 32 32h576a32 32 0 0 0 32-32v-192a32 32 0 0 1 64 0v192a96 96 0 0 1-96 96h-576a96 96 0 0 1-96-96v-192a32 32 0 0 1 32-32z" fill="#ffffff" p-id="3637"></path></svg>