<?xml version="1.0" standalone="no"?><!DOCTYPE svg PUBLIC "-//W3C//DTD SVG 1.1//EN" "http://www.w3.org/Graphics/SVG/1.1/DTD/svg11.dtd"><svg t="1725117437049" class="icon" viewBox="0 0 1024 1024" version="1.1" xmlns="http://www.w3.org/2000/svg" p-id="2591" xmlns:xlink="http://www.w3.org/1999/xlink" width="256" height="256"><path d="M881.322667 888.021333H142.677333a35.968 35.968 0 1 0 0 71.978667h738.645334a35.968 35.968 0 1 0 0-72.021333zM296.021333 770.005333l235.477334-99.712a33.109333 33.109333 0 0 0 10.24-6.826666l397.141333-397.184a72.234667 72.234667 0 0 0 0.213333-101.973334l-79.274666-79.317333a72.234667 72.234667 0 0 0-102.016 0.213333l-397.226667 397.226667a32 32 0 0 0-6.784 10.154667l-99.797333 235.434666a31.658667 31.658667 0 0 0 6.826666 35.072 31.573333 31.573333 0 0 0 35.2 6.912zM808.661333 136.106667l0.213334-0.213334 79.189333 79.189334-0.213333 0.213333L825.898667 277.333333l-79.189334-79.189333 61.994667-61.994667z m-391.68 391.68l278.784-278.784 79.189334 79.189333-278.784 278.826667-137.386667 58.197333 58.154667-137.386667z" fill="#ffffff" p-id="2592"></path></svg>