<?xml version="1.0" standalone="no"?><!DOCTYPE svg PUBLIC "-//W3C//DTD SVG 1.1//EN" "http://www.w3.org/Graphics/SVG/1.1/DTD/svg11.dtd"><svg t="1722518643092" class="icon" viewBox="0 0 1024 1024" version="1.1" xmlns="http://www.w3.org/2000/svg" p-id="5479" xmlns:xlink="http://www.w3.org/1999/xlink" width="256" height="256"><path d="M716.8 70.4a32 32 0 0 1 32 32v70.4h172.8a32 32 0 0 1 0 64h-172.8V307.2a32 32 0 0 1-64 0V102.4a32 32 0 0 1 32-32zM70.4 204.8a32 32 0 0 1 32-32H512a32 32 0 0 1 0 64H102.4a32 32 0 0 1-32-32zM512 377.6a32 32 0 0 1 32 32v204.8a32 32 0 0 1-64 0v-70.4H102.4a32 32 0 0 1 0-64h377.6V409.6a32 32 0 0 1 32-32zM684.8 512a32 32 0 0 1 32-32h204.8a32 32 0 0 1 0 64h-204.8a32 32 0 0 1-32-32zM332.8 684.8a32 32 0 0 1 32 32v204.8a32 32 0 0 1-64 0v-70.4H102.4a32 32 0 0 1 0-64h198.4V716.8a32 32 0 0 1 32-32z m147.2 134.4a32 32 0 0 1 32-32h409.6a32 32 0 0 1 0 64H512a32 32 0 0 1-32-32z" p-id="5480" fill="#ffffff"></path></svg>