<?xml version="1.0" standalone="no"?><!DOCTYPE svg PUBLIC "-//W3C//DTD SVG 1.1//EN" "http://www.w3.org/Graphics/SVG/1.1/DTD/svg11.dtd"><svg t="1722518775288" class="icon" viewBox="0 0 1024 1024" version="1.1" xmlns="http://www.w3.org/2000/svg" p-id="10571" xmlns:xlink="http://www.w3.org/1999/xlink" width="256" height="256"><path d="M26.688793 516.009821c0 13.575593 0.455169 27.158412 1.394406 40.734005l328.617504-326.291084-157.271696-88.476166C93.641972 232.331217 26.688793 366.208676 26.688793 516.009821z m27.158412 161.967883c37.923518 107.65106 111.400785 197.984026 206.899556 256.498519V481.359185L53.847205 677.977704z m300.527079 301.487992c51.022267 18.235656 106.263878 28.068749 163.839133 28.068749 156.346908 0 295.859792-73.050998 385.737589-187.24782H354.374284v159.179071z m374.488415-677.370813V71.75774C665.232975 41.340897 593.554709 24.492422 518.213417 24.492422a491.539074 491.539074 0 0 0-216.277482 50.08303l426.926764 227.519431z m233.602799 424.571445c30.445743-63.636949 47.265318-135.315215 47.265318-210.649282 0-156.346908-73.050998-295.838117-187.24782-386.192758v596.84204h139.982502z" fill="#ffffff" p-id="10572"></path></svg>