<?xml version="1.0" standalone="no"?><!DOCTYPE svg PUBLIC "-//W3C//DTD SVG 1.1//EN" "http://www.w3.org/Graphics/SVG/1.1/DTD/svg11.dtd"><svg t="1725093476809" class="icon" viewBox="0 0 1024 1024" version="1.1" xmlns="http://www.w3.org/2000/svg" p-id="6206" xmlns:xlink="http://www.w3.org/1999/xlink" width="256" height="256"><path d="M984.554971 729.818319L757.2752 1001.934666c-23.431608 29.784785-63.349596 27.462118-91.084969 0l-148.309102-117.727323a34.156864 34.156864 0 0 1 34.156863-59.159688L711.732715 956.392181l224.524451-274.871667a34.156864 34.156864 0 1 1 48.297805 48.297805zM506.791534 592.052303c-6.284863 6.968-12.569726 0-22.771243 0-171.103115 0-386.928951 164.066802-386.928951 358.396584 0 18.740733-15.347817 33.951922-34.316262 33.951922a34.156864 34.156864 0 0 1-34.361805-33.951922c0-160.582801 134.122618-342.616113 323.283329-400.181814C261.271998 499.783228 210.765382 406.011252 210.765382 296.026151 210.765382 133.530566 342.428706 0 506.791534 0s296.026151 133.530566 296.026151 296.026151c0 161.630279-132.892971 294.614334-296.026151 296.026152z m0-523.738576c-126.243768 0-227.712424 102.903244-227.712424 227.712424s101.468656 227.712424 227.712424 227.712424 227.712424-102.903244 227.712424-227.712424S633.035302 68.313727 506.791534 68.313727z" fill="#ffffff" p-id="6207"></path></svg>