<?xml version="1.0" standalone="no"?><!DOCTYPE svg PUBLIC "-//W3C//DTD SVG 1.1//EN" "http://www.w3.org/Graphics/SVG/1.1/DTD/svg11.dtd"><svg t="1723377131897" class="icon" viewBox="0 0 1024 1024" version="1.1" xmlns="http://www.w3.org/2000/svg" p-id="5319" xmlns:xlink="http://www.w3.org/1999/xlink" width="256" height="256"><path d="M744.16 232.16c-148.64 0-271.84 118.56-279.36 265.44l-0.32 14.24c0 100.96-83.52 184.64-184.64 184.64S95.2 612.96 95.2 512s83.52-184.64 184.64-184.64c35.68 0 70.56 10.08 99.04 29.12 23.36 14.08 52 7.68 66.56-14.08 14.08-23.36 7.68-52-14.08-66.56-45.28-28.8-96.96-43.68-151.36-43.68-153.6 0-280 126.4-280 279.84s126.4 279.84 279.84 279.84c148.64 0 271.84-118.56 279.36-265.44l0.8-26.08c6.08-96 87.52-172.8 184.16-172.8 100.96 0 184.64 83.52 184.64 184.64s-83.52 184.64-184.64 184.64c-36.8 0-73.76-11.68-104.96-33.12-21.76-14.56-52.48-9.28-66.56 12-14.4 21.6-9.28 52.32 12.16 66.56 44.64 32.48 100.48 49.6 159.52 49.6 153.44 0 279.84-126.4 279.84-279.84-0.16-154.72-125.92-279.84-280-279.84z" fill="#ffffff" p-id="5320"></path></svg>