<?xml version="1.0" standalone="no"?><!DOCTYPE svg PUBLIC "-//W3C//DTD SVG 1.1//EN" "http://www.w3.org/Graphics/SVG/1.1/DTD/svg11.dtd"><svg t="1723090368025" class="icon" viewBox="0 0 1024 1024" version="1.1" xmlns="http://www.w3.org/2000/svg" p-id="3560" xmlns:xlink="http://www.w3.org/1999/xlink" width="256" height="256"><path d="M512.8437504 227.13393067C481.073776 178.0228736 407.39027307 85.35117333 304.50624853 85.35117333c-147.64207253 0-267.7307392 133.00797547-267.7307392 296.5524992 0 76.46034773 51.88680853 186.0605344 114.84388054 243.43226454 87.084176 111.89675947 331.8873984 313.3117984 362.11395306 313.3117984 30.77559253 0 270.33512107-197.50737387 358.9954624-311.9746784 64.05405653-58.33009067 116.18100053-168.1027392 116.18100054-244.76829334 0-163.54452373-120.0875744-296.5524992-267.7307392-296.5524992C618.29722773 85.35117333 544.61372373 178.0228736 512.8437504 227.13393067L512.8437504 227.13393067zM541.35770027 305.20428053c37.08243307-78.0026752 107.06457067-156.7246656 179.823552-156.7246656 112.82237333 0 204.6022976 104.70032427 204.6022976 233.4240576 0 61.17460907-44.3476352 152.44042347-96.8173184 199.256-1.43972373 1.30219093-2.74191467 2.7069856-4.0441056 4.31807894-78.036512 101.68443627-235.1039168 227.70118293-311.01522667 282.9815488-56.4111872-41.29790933-226.36406293-169.98780587-313.6207008-283.39305387-1.1657504-1.54232747-2.535616-3.015888-3.97533973-4.353008-52.2644768-46.74681067-96.40581333-137.77248853-96.40581334-198.80956587 0-128.72482453 91.7799232-233.4240576 204.6022976-233.4240576 72.72405227 0 142.74111787 78.7219904 179.8573888 156.7246656 4.93479147 10.34985493 15.83368533 16.7592992 28.480112 16.7592992C525.49017707 321.96357973 536.42290773 315.55413547 541.35770027 305.20428053L541.35770027 305.20428053z" fill="#ffffff" p-id="3561"></path></svg>