<?xml version="1.0" standalone="no"?><!DOCTYPE svg PUBLIC "-//W3C//DTD SVG 1.1//EN" "http://www.w3.org/Graphics/SVG/1.1/DTD/svg11.dtd"><svg t="1722518603530" class="icon" viewBox="0 0 1024 1024" version="1.1" xmlns="http://www.w3.org/2000/svg" p-id="2685" xmlns:xlink="http://www.w3.org/1999/xlink" width="256" height="256"><path d="M901.266 582c0-26.989 21.878-48.867 48.867-48.867C977.122 533.133 999 555.01 999 582v319.266C999 955.243 955.243 999 901.266 999H123.734C69.757 999 26 955.243 26 901.266V123.734C26 69.757 69.757 26 123.734 26H443c26.989 0 48.867 21.878 48.867 48.867 0 26.989-21.878 48.867-48.867 48.867H123.734v777.532h777.532V582z m3.372-390.778l-333.11 332.394c-19.361 19.319-50.751 19.319-70.113 0-19.36-19.32-19.36-50.643 0-69.963L835.626 120.16H669.78c-26.057 0-47.18-21.077-47.18-47.08 0-26.001 21.123-47.079 47.18-47.079h239.593C958.872 26 999 66.042 999 115.436v239.078c0 26.002-21.123 47.08-47.181 47.08-26.058 0-47.181-21.078-47.181-47.08V191.222z" p-id="2686" fill="#ffffff"></path></svg>