<?xml version="1.0" standalone="no"?><!DOCTYPE svg PUBLIC "-//W3C//DTD SVG 1.1//EN" "http://www.w3.org/Graphics/SVG/1.1/DTD/svg11.dtd"><svg t="1720430321109" class="icon" viewBox="0 0 1024 1024" version="1.1" xmlns="http://www.w3.org/2000/svg" p-id="980" xmlns:xlink="http://www.w3.org/1999/xlink" width="256" height="256"><path d="M883.689739 734.608696c28.315826 0 51.266783 19.923478 51.266783 44.521739s-22.950957 44.521739-51.266783 44.521739H140.310261C111.994435 823.652174 89.043478 803.728696 89.043478 779.130435s22.950957-44.521739 51.266783-44.521739h743.379478z m0-289.391305c28.315826 0 51.266783 19.923478 51.266783 44.521739s-22.950957 44.521739-51.266783 44.52174H140.310261C111.994435 534.26087 89.043478 514.337391 89.043478 489.73913s22.950957-44.521739 51.266783-44.521739h743.379478z m0-289.391304C912.005565 155.826087 934.956522 175.749565 934.956522 200.347826s-22.950957 44.521739-51.266783 44.521739H140.310261C111.994435 244.869565 89.043478 224.946087 89.043478 200.347826s22.950957-44.521739 51.266783-44.521739h743.379478z" fill="#ffffff" p-id="981"></path></svg>