<?xml version="1.0" standalone="no"?><!DOCTYPE svg PUBLIC "-//W3C//DTD SVG 1.1//EN" "http://www.w3.org/Graphics/SVG/1.1/DTD/svg11.dtd"><svg t="1723377273251" class="icon" viewBox="0 0 1024 1024" version="1.1" xmlns="http://www.w3.org/2000/svg" p-id="6784" xmlns:xlink="http://www.w3.org/1999/xlink" width="256" height="256"><path d="M938.154667 264.405333l-136.533334 102.4a12.8 12.8 0 0 1-20.48-10.24v-204.8a12.8 12.8 0 0 1 20.48-10.24l136.533334 102.4a12.8 12.8 0 0 1 0 20.48zM938.154667 778.24l-136.533334 102.4a12.8 12.8 0 0 1-20.48-10.24v-204.8a12.8 12.8 0 0 1 20.48-10.24l136.533334 102.4a12.8 12.8 0 0 1 0 20.48z" fill="#ffffff" p-id="6785"></path><path d="M232.234667 806.4a274.346667 274.346667 0 0 0 252.416-166.869333l4.096-10.24 89.770666-236.885334a154.624 154.624 0 0 1 136.277334-99.584L725.333333 292.608l32.853334 1.194667 86.4 4.309333a38.4 38.4 0 0 0 4.010666-76.672l-81.152-4.096-38.656-1.493333-5.632-0.085334a231.424 231.424 0 0 0-212.736 140.245334l-3.712 9.173333-89.770666 236.885333a197.546667 197.546667 0 0 1-175.274667 127.317334l-9.386667 0.213333H102.698667a38.4 38.4 0 0 0-4.821334 76.501333l4.821334 0.298667h129.493333z" fill="#ffffff" p-id="6786"></path><path d="M578.218667 629.76a155.136 155.136 0 0 0 136.533333 99.626667L725.333333 729.6l32.853334-1.237333 86.4-4.266667a38.4 38.4 0 0 1 4.010666 76.672l-81.152 4.053333-38.656 1.493334-5.632 0.085333a231.936 231.936 0 0 1-216.704-149.205333 38.4 38.4 0 1 1 71.765334-27.392zM237.44 215.808a266.453333 266.453333 0 0 1 238.378667 147.413333 38.4 38.4 0 0 1-68.736 34.261334 189.653333 189.653333 0 0 0-160.298667-104.618667l-9.386667-0.256H102.784a38.4 38.4 0 0 1-4.821333-76.501333l4.821333-0.298667h134.698667z" fill="#ffffff" p-id="6787"></path></svg>