<?xml version="1.0" standalone="no"?><!DOCTYPE svg PUBLIC "-//W3C//DTD SVG 1.1//EN" "http://www.w3.org/Graphics/SVG/1.1/DTD/svg11.dtd"><svg t="1724483390555" class="icon" viewBox="0 0 1024 1024" version="1.1" xmlns="http://www.w3.org/2000/svg" p-id="2583" xmlns:xlink="http://www.w3.org/1999/xlink" width="256" height="256"><path d="M511.474 884.11c-205.692 0-373.042-167.083-373.042-372.46 0-205.371 167.35-372.46 373.042-372.46 205.698 0 373.042 167.089 373.042 372.46 0 205.376-167.344 372.46-373.042 372.46m0-819.412c-246.84 0-447.649 200.496-447.649 446.951 0 246.457 200.809 446.951 447.649 446.951 246.842 0 447.649-200.494 447.649-446.951 0-246.455-200.808-446.951-447.649-446.951" fill="#ffffff" p-id="2584"></path><path d="M421.528 644.852V379.148c0-30.561 35.86-47.035 59.047-27.125l156.124 134.062c16.714 14.352 16.597 40.258-0.245 54.459L480.33 672.186c-23.249 19.603-58.802 3.076-58.802-27.334z" fill="#ffffff" p-id="2585"></path></svg>