<?xml version="1.0" standalone="no"?><!DOCTYPE svg PUBLIC "-//W3C//DTD SVG 1.1//EN" "http://www.w3.org/Graphics/SVG/1.1/DTD/svg11.dtd"><svg t="1724483394092" class="icon" viewBox="0 0 1024 1024" version="1.1" xmlns="http://www.w3.org/2000/svg" p-id="2794" xmlns:xlink="http://www.w3.org/1999/xlink" width="256" height="256"><path d="M511.474 884.11c-205.692 0-373.042-167.083-373.042-372.46 0-205.371 167.35-372.46 373.042-372.46 205.698 0 373.042 167.089 373.042 372.46 0 205.376-167.344 372.46-373.042 372.46m0-819.412c-246.84 0-447.649 200.496-447.649 446.951 0 246.457 200.809 446.951 447.649 446.951 246.842 0 447.649-200.494 447.649-446.951 0-246.455-200.808-446.951-447.649-446.951m127.768 580.701V378.6c0-20.573-16.701-37.247-37.301-37.247-20.606 0-37.307 16.675-37.307 37.247v266.799c0 20.574 16.701 37.249 37.307 37.249 20.601 0 37.301-16.675 37.301-37.249m-179.876 0V378.6c0-20.573-16.701-37.247-37.301-37.247-20.606 0-37.307 16.675-37.307 37.247v266.799c0 20.574 16.701 37.249 37.307 37.249 20.6 0 37.301-16.675 37.301-37.249" fill="#ffffff" p-id="2795"></path></svg>