<svg xmlns="http://www.w3.org/2000/svg" width="128" height="128" viewBox="0 0 24 24"><path fill="#000000" d="M4 16V4zm11 2H6l-2.3 2.3q-.475.475-1.088.213T2 19.575V4q0-.825.588-1.412T4 2h11q.825 0 1.413.588T17 4v1q0 .425-.288.713T16 6t-.712-.288T15 5V4H4v12h11v-3q0-.425.288-.712T16 12t.713.288T17 13v3q0 .825-.587 1.413T15 18m-8-4h2q.425 0 .713-.288T10 13t-.288-.712T9 12H7q-.425 0-.712.288T6 13t.288.713T7 14m12-2q-1.25 0-2.125-.875T16 9t.875-2.125T19 6q.275 0 .525.05t.475.125V2q0-.425.288-.712T21 1h2q.425 0 .713.288T24 2t-.288.713T23 3h-1v6q0 1.25-.875 2.125T19 12M7 11h5q.425 0 .713-.288T13 10t-.288-.712T12 9H7q-.425 0-.712.288T6 10t.288.713T7 11m0-3h5q.425 0 .713-.288T13 7t-.288-.712T12 6H7q-.425 0-.712.288T6 7t.288.713T7 8"/></svg>